<svg xmlns="http://www.w3.org/2000/svg" xmlns:xlink="http://www.w3.org/1999/xlink" width="37" height="37" viewBox="0 0 37 37">
    <defs>
        <path id="wq3cjledca" d="M23.683 10.147l-4.214-8.96C19.061.451 18.312 0 17.501 0c-.811 0-1.561.452-1.969 1.186l-4.214 8.963-9.441 1.437c-.825.124-1.511.728-1.77 1.558-.257.83-.043 1.74.554 2.35l6.83 6.976-1.612 9.852c-.14.86.197 1.728.87 2.24.674.513 1.566.58 2.303.175l8.449-4.653 8.444 4.648c.737.406 1.63.338 2.303-.174.673-.513 1.01-1.381.87-2.24l-1.612-9.852 6.835-6.972c.595-.609.809-1.518.552-2.347s-.94-1.433-1.764-1.56l-9.446-1.44z"/>
    </defs>
    <g fill="none" fill-rule="evenodd" transform="translate(1 1)">
        <use fill-rule="nonzero" stroke="orange" xlink:href="#wq3cjledca"/>
    </g>
</svg>
